<svg xmlns="http://www.w3.org/2000/svg" version="1.1" xmlns:xlink="http://www.w3.org/1999/xlink" xmlns:svgjs="http://svgjs.dev/svgjs" width="1500" height="1500" viewBox="0 0 1500 1500"><rect width="1500" height="1500" fill="#ffffff"></rect><g transform="matrix(0.6666666666666666,0,0,0.6666666666666666,249.39436519522388,628.4493197387164)"><svg viewBox="0 0 396 96" data-background-color="#ffffff" preserveAspectRatio="xMidYMid meet" height="363" width="1500" xmlns="http://www.w3.org/2000/svg" xmlns:xlink="http://www.w3.org/1999/xlink"><g id="tight-bounds" transform="matrix(1,0,0,1,0.24008861730862918,0.21845167389761855)"><svg viewBox="0 0 395.52 95.56309665220476" height="95.56309665220476" width="395.52"><g><svg viewBox="0 0 395.52 95.56309665220476" height="95.56309665220476" width="395.52"><g><svg viewBox="0 0 395.52 95.56309665220476" height="95.56309665220476" width="395.52"><g id="textblocktransform"><svg viewBox="0 0 395.52 95.56309665220476" height="95.56309665220476" width="395.52" id="textblock"><g><svg viewBox="0 0 395.52 95.56309665220476" height="95.56309665220476" width="395.52"><path d="M394.594 20.496C392.735 10.577 387.435 7.819 387.435 7.819 371.165-2.398 350.86-0.195 332.619 1.273 300.414 1.332 268.339 3.514 236.208 4.685 168.767 4.863 100.749 1.927 33.643 9.168 27.339 11.39-6.54 9.605 1.121 21.766 3.129 26.825 10.456 32.439 10.232 37.082 11.236 37.895 12.631 36.03 13.226 37.201 15.309 40.355 18.711 38.867 21.501 40.732 17.614 45.712 20.403 49.858 23.062 54.203 18.377 55.333 12.371 54.798 9.675 58.547 9.396 61.265 7.89 60.749 6.235 60.63 5.026 60.551 2.59 60.849 2.999 61.702 4.394 64.618-1.594 66.304 2.162 69.161-0.422 72.256 3.948 74.934 3.353 78.287 3.278 78.961 3.687 79.537 4.338 79.696 7.22 80.549 3.018 82.215 3.464 84.02 33.029 96.36 65.104 87.829 95.394 93.503 103.259 89.536 97.346 94.912 100.489 94.079 102.943 93.107 104.728 97.134 107.499 94.852 107.927 94.198 107.276 92.65 108.8 92.948 109.6 93.107 110.307 93.067 110.418 92.154 110.586 90.785 109.117 91.639 108.726 90.924 112.947 87.314 111.906 95.904 115.866 95.547 115.68 94.495 114.528 92.988 116.889 93.186 119.232 91.678 119.306 90.428 121.389 93.821 121.463 94.555 121.835 95.071 122.43 95.428 128.938 91.738 135.409 96.737 142.233 95.071 146.417 93.245 150.433 96.063 154.672 95.368 156.16 94.813 157.666 93.821 159.098 95.487 176.632 95.844 195.319 94.356 211.943 95.547 256.364 93.325 303.836 96.459 350.674 93.523 361.719 92.392 373.192 90.785 383.958 89.496 383.958 89.496 392.679 85.965 392.679 70.094S394.538 56.206 394.817 43.569C395.096 30.932 396.398 30.416 394.538 20.496Z" opacity="1" fill="#000000" data-fill-palette-color="tertiary"></path><g transform="matrix(1,0,0,1,55.76832,26.230666666666668)"><svg width="283.98335999999995" viewBox="2.0181819052480003 -32.3 286.25181809475197 43.449999999999996" height="43.101763318871434" data-palette-color="#ffffff"><path d="M10.1-26.5L10.1-5.65Q10.1-5.55 10.1-5.35L10.1-5.35Q10.1-4.9 10.1-4.17 10.1-3.45 10.15-2.85 10.2-2.25 10.35-2.15L10.35-2.15Q10.85-1.8 11.58-1.73 12.3-1.65 13.85-1.65L13.85-1.65 16.6-1.65Q18-1.65 19.68-1.98 21.35-2.3 22.35-3L22.35-3Q23.25-3.65 24.03-4.8 24.8-5.95 25.4-7.9L25.4-7.9Q25.5-8.2 26.1-8.2L26.1-8.2Q27-8.2 27.3-7.9L27.3-7.9Q26.6-5.9 25.78-3.65 24.95-1.4 24.7 0.2L24.7 0.2Q20.75 0.2 16.85 0.1 12.95 0 8.05 0L8.05 0Q6.35 0 5 0.08 3.65 0.15 2.2 0.15L2.2 0.15Q2-0.05 2.02-0.55 2.05-1.05 2.2-1.25L2.2-1.25Q2.5-1.25 3.3-1.33 4.1-1.4 4.83-1.6 5.55-1.8 5.6-2.05L5.6-2.05Q5.8-2.65 5.83-3.6 5.85-4.55 5.85-5.65L5.85-5.65 5.85-26.5Q5.85-27.6 5.83-28.58 5.8-29.55 5.6-30.15L5.6-30.15Q5.55-30.45 4.83-30.6 4.1-30.75 3.3-30.83 2.5-30.9 2.2-30.9L2.2-30.9Q2.05-31.1 2.02-31.6 2-32.1 2.2-32.3L2.2-32.3Q3.7-32.25 5.15-32.18 6.6-32.1 8-32.1L8-32.1Q9.45-32.1 10.83-32.18 12.2-32.25 13.7-32.3L13.7-32.3Q13.9-32.1 13.88-31.6 13.85-31.1 13.7-30.9L13.7-30.9Q13.4-30.9 12.6-30.83 11.8-30.75 11.1-30.6 10.4-30.45 10.3-30.15L10.3-30.15Q10.15-29.65 10.13-28.85 10.1-28.05 10.1-27.1L10.1-27.1Q10.1-26.95 10.1-26.8 10.1-26.65 10.1-26.5L10.1-26.5ZM32.9-12.1L32.9-12.1Q32.85-9 33.95-6.9 35.05-4.8 36.9-3.78 38.75-2.75 40.9-2.75L40.9-2.75Q42.25-2.75 43.35-3.23 44.45-3.7 45.2-4.33 45.95-4.95 46.25-5.3L46.25-5.3Q46.3-5.3 46.47-5.13 46.65-4.95 46.65-4.65L46.65-4.65Q46.65-4.25 46.35-3.75L46.35-3.75Q45.9-3.05 44.95-2.08 44-1.1 42.55-0.35 41.1 0.4 39.2 0.4L39.2 0.4Q36.35 0.4 34.15-0.95 31.95-2.3 30.7-4.6 29.45-6.9 29.45-9.75L29.45-9.75Q29.45-12.2 30.32-14.33 31.2-16.45 32.62-18.03 34.05-19.6 35.75-20.5 37.45-21.4 39.05-21.4L39.05-21.4Q41.25-21.4 42.67-20.65 44.1-19.9 44.92-18.8 45.75-17.7 46.07-16.6 46.4-15.5 46.4-14.75L46.4-14.75Q46.4-13.7 46.15-13.1 45.9-12.5 45.2-12.45L45.2-12.45Q44.75-12.4 43.42-12.38 42.1-12.35 40.4-12.3 38.7-12.25 37.05-12.2 35.4-12.15 34.25-12.13 33.1-12.1 32.9-12.1ZM33.15-13.9L33.15-13.9 41.1-13.9Q41.55-13.9 41.87-14.15 42.2-14.4 42.25-15.05L42.25-15.05Q42.3-15.65 41.9-16.75 41.5-17.85 40.62-18.75 39.75-19.65 38.25-19.65L38.25-19.65Q36.7-19.65 35.7-18.78 34.7-17.9 34.12-16.78 33.55-15.65 33.32-14.78 33.1-13.9 33.15-13.9ZM60.2-21.3L60.2-21.3Q61.6-21.3 62.82-20.4 64.05-19.5 64.8-18 65.55-16.5 65.55-14.6L65.55-14.6 65.55-4.55Q65.55-3.6 65.9-2.93 66.25-2.25 67.05-2.25L67.05-2.25Q67.75-2.25 68.15-2.55 68.55-2.85 68.65-2.9L68.65-2.9Q68.75-2.9 68.8-2.75 68.85-2.6 68.85-2.5L68.85-2.5Q68.85-1.95 68.6-1.55L68.6-1.55Q68.3-1.3 67.62-0.85 66.95-0.4 66.22-0.05 65.5 0.3 64.95 0.3L64.95 0.3Q63.9 0.3 63.07-0.75 62.25-1.8 62-2.9L62-2.9Q61.8-2.7 61.07-2.15 60.35-1.6 59.4-1.03 58.45-0.45 57.52-0.03 56.6 0.4 55.95 0.4L55.95 0.4Q53.55 0.4 51.9-1.23 50.25-2.85 50.25-5.2L50.25-5.2Q50.25-6.7 51.07-7.78 51.9-8.85 52.7-9.15L52.7-9.15Q54.1-9.65 55.82-10.23 57.55-10.8 59.05-11.35 60.55-11.9 61.25-12.2L61.25-12.2Q61.65-12.35 61.75-12.58 61.85-12.8 61.85-13.45L61.85-13.45 61.85-14.75Q61.85-15.85 61.3-16.93 60.75-18 59.8-18.73 58.85-19.45 57.65-19.45L57.65-19.45Q56.4-19.45 55.8-18.65 55.2-17.85 54.95-16.4L54.95-16.4Q54.5-14.05 52.65-14.05L52.65-14.05Q51.85-14.05 51.42-14.7 51-15.35 51-16.1L51-16.1Q51-16.25 51.1-16.68 51.2-17.1 51.35-17.3L51.35-17.3Q52.1-18 53.5-18.95 54.9-19.9 56.67-20.6 58.45-21.3 60.2-21.3ZM57.6-2.25L57.6-2.25Q58.45-2.25 59.45-2.65 60.45-3.05 61.15-3.53 61.85-4 61.85-4.25L61.85-4.25 61.85-10.9Q60.9-10.6 59.45-10.15 58-9.7 57.3-9.45L57.3-9.45Q56-8.95 55.15-8 54.3-7.05 54.3-5.65L54.3-5.65Q54.3-4.3 55.25-3.28 56.2-2.25 57.6-2.25ZM84.24-21.35L84.24-21.35Q85.19-21.35 86.04-20.93 86.89-20.5 87.24-19.9L87.24-19.9Q87.34-19.7 87.39-19.35 87.44-19 87.44-18.6L87.44-18.6Q87.44-17.25 86.82-16.65 86.19-16.05 85.79-16.05L85.79-16.05Q85.29-16.05 84.84-16.4 84.39-16.75 83.99-17L83.99-17Q83.64-17.25 83.27-17.43 82.89-17.6 82.19-17.6L82.19-17.6Q81.14-17.6 80.27-16.73 79.39-15.85 78.84-14.8 78.29-13.75 78.29-13.2L78.29-13.2 78.29-5.65Q78.29-4.55 78.32-3.6 78.34-2.65 78.54-2.05L78.54-2.05Q78.64-1.8 79.54-1.6 80.44-1.4 81.44-1.33 82.44-1.25 82.74-1.25L82.74-1.25Q82.89-1.05 82.92-0.55 82.94-0.05 82.74 0.15L82.74 0.15Q81.24 0.05 79.69-0.03 78.14-0.1 76.69-0.1L76.69-0.1Q75.29-0.1 73.99-0.03 72.69 0.05 71.19 0.15L71.19 0.15Q70.99-0.05 71.02-0.55 71.04-1.05 71.19-1.25L71.19-1.25Q71.49-1.25 72.22-1.33 72.94-1.4 73.59-1.6 74.24-1.8 74.29-2.05L74.29-2.05Q74.49-2.65 74.52-3.6 74.54-4.55 74.54-5.65L74.54-5.65 74.54-14.75Q74.54-15.25 74.52-16.05 74.49-16.85 74.29-17.3L74.29-17.3Q74.14-17.75 73.44-17.93 72.74-18.1 72.04-18.13 71.34-18.15 71.14-18.15L71.14-18.15Q71.09-18.25 71.04-18.75 70.99-19.25 71.14-19.45L71.14-19.45Q73.04-19.7 74.84-20.2 76.64-20.7 78.09-21.5L78.09-21.5Q78.29-21.5 78.47-21.2 78.64-20.9 78.64-20.7L78.64-20.7Q78.64-20.55 78.54-19.55 78.44-18.55 78.37-17.53 78.29-16.5 78.29-16.2L78.29-16.2Q78.29-16.05 78.37-16.05 78.44-16.05 78.49-16.1L78.49-16.1Q78.99-17.15 79.92-18.38 80.84-19.6 81.99-20.48 83.14-21.35 84.24-21.35ZM103.89-21.4L103.89-21.4Q106.54-21.4 107.89-20.3 109.24-19.2 109.72-16.9 110.19-14.6 110.19-11.05L110.19-11.05 110.19-5.65Q110.19-4.55 110.22-3.6 110.24-2.65 110.44-2.05L110.44-2.05Q110.54-1.8 111.17-1.6 111.79-1.4 112.49-1.33 113.19-1.25 113.49-1.25L113.49-1.25Q113.64-1.05 113.67-0.55 113.69-0.05 113.49 0.15L113.49 0.15Q111.99 0.05 110.87-0.03 109.74-0.1 108.29-0.1L108.29-0.1Q106.89-0.1 105.74-0.03 104.59 0.05 103.09 0.15L103.09 0.15Q102.89-0.05 102.92-0.55 102.94-1.05 103.09-1.25L103.09-1.25Q103.39-1.25 104.12-1.33 104.84-1.4 105.49-1.6 106.14-1.8 106.19-2.05L106.19-2.05Q106.39-2.65 106.42-3.6 106.44-4.55 106.44-5.65L106.44-5.65 106.44-10.55Q106.44-13.6 106.04-15.33 105.64-17.05 104.59-17.8 103.54-18.55 101.64-18.55L101.64-18.55Q100.74-18.55 99.67-17.98 98.59-17.4 97.79-16.75 96.99-16.1 96.99-15.85L96.99-15.85 96.99-5.65Q96.99-4.55 97.02-3.6 97.04-2.65 97.24-2.05L97.24-2.05Q97.34-1.8 97.97-1.6 98.59-1.4 99.29-1.33 99.99-1.25 100.29-1.25L100.29-1.25Q100.44-1.05 100.47-0.55 100.49-0.05 100.29 0.15L100.29 0.15Q98.79 0.05 97.67-0.03 96.54-0.1 95.09-0.1L95.09-0.1Q93.69-0.1 92.54-0.03 91.39 0.05 89.89 0.15L89.89 0.15Q89.69-0.05 89.72-0.55 89.74-1.05 89.89-1.25L89.89-1.25Q90.19-1.25 90.92-1.33 91.64-1.4 92.29-1.6 92.94-1.8 92.99-2.05L92.99-2.05Q93.19-2.65 93.22-3.6 93.24-4.55 93.24-5.65L93.24-5.65 93.24-14.55Q93.24-15.05 93.22-15.95 93.19-16.85 92.99-17.3L92.99-17.3Q92.84-17.75 92.14-17.93 91.44-18.1 90.74-18.13 90.04-18.15 89.84-18.15L89.84-18.15Q89.79-18.25 89.74-18.75 89.69-19.25 89.84-19.45L89.84-19.45Q91.74-19.7 93.54-20.2 95.34-20.7 96.79-21.5L96.79-21.5Q96.99-21.5 97.17-21.2 97.34-20.9 97.34-20.7L97.34-20.7Q97.34-20.55 97.27-19.93 97.19-19.3 97.12-18.7 97.04-18.1 97.04-17.9L97.04-17.9Q97.04-17.7 97.14-17.7L97.14-17.7Q97.19-17.7 97.29-17.8L97.29-17.8Q97.79-18.35 98.92-19.2 100.04-20.05 101.39-20.73 102.74-21.4 103.89-21.4ZM129.14-32.15L129.14-32.15Q134.49-32.15 138.34-30.08 142.19-28 144.24-24.43 146.29-20.85 146.29-16.3L146.29-16.3Q146.29-13.2 145.44-10.25 144.59-7.3 142.56-4.95 140.54-2.6 137.09-1.23 133.64 0.15 128.49 0.15L128.49 0.15 116.29 0.15Q116.09-0.05 116.11-0.55 116.14-1.05 116.29-1.25L116.29-1.25Q116.59-1.25 117.39-1.33 118.19-1.4 118.91-1.6 119.64-1.8 119.69-2.05L119.69-2.05Q119.89-2.65 119.91-3.6 119.94-4.55 119.94-5.65L119.94-5.65 119.94-26.5Q119.94-27.6 119.91-28.58 119.89-29.55 119.69-30.15L119.69-30.15Q119.64-30.45 118.91-30.6 118.19-30.75 117.39-30.83 116.59-30.9 116.29-30.9L116.29-30.9Q116.14-31.1 116.11-31.6 116.09-32.1 116.29-32.3L116.29-32.3Q117.79-32.25 119.24-32.18 120.69-32.1 122.09-32.1L122.09-32.1Q123.54-32.1 125.54-32.13 127.54-32.15 129.14-32.15ZM124.24-26.4L124.24-26.4 124.24-5.6Q124.24-5.25 124.24-4.48 124.24-3.7 124.31-2.98 124.39-2.25 124.49-2.1L124.49-2.1Q124.79-1.7 125.96-1.55 127.14-1.4 128.49-1.4L128.49-1.4Q131.99-1.4 134.91-2.9 137.84-4.4 139.64-7.48 141.44-10.55 141.44-15.3L141.44-15.3Q141.44-19.45 140.31-22.35 139.19-25.25 137.26-27.08 135.34-28.9 132.91-29.73 130.49-30.55 127.84-30.55L127.84-30.55Q127.54-30.55 126.74-30.53 125.94-30.5 125.24-30.4 124.54-30.3 124.44-30.05L124.44-30.05Q124.29-29.55 124.26-28.73 124.24-27.9 124.24-27L124.24-27Q124.24-26.85 124.24-26.7 124.24-26.55 124.24-26.4ZM160.49-21.3L160.49-21.3Q161.89-21.3 163.11-20.4 164.34-19.5 165.09-18 165.84-16.5 165.84-14.6L165.84-14.6 165.84-4.55Q165.84-3.6 166.19-2.93 166.54-2.25 167.34-2.25L167.34-2.25Q168.04-2.25 168.44-2.55 168.84-2.85 168.94-2.9L168.94-2.9Q169.04-2.9 169.09-2.75 169.14-2.6 169.14-2.5L169.14-2.5Q169.14-1.95 168.89-1.55L168.89-1.55Q168.59-1.3 167.91-0.85 167.24-0.4 166.51-0.05 165.79 0.3 165.24 0.3L165.24 0.3Q164.19 0.3 163.36-0.75 162.54-1.8 162.29-2.9L162.29-2.9Q162.09-2.7 161.36-2.15 160.64-1.6 159.69-1.03 158.74-0.45 157.81-0.03 156.89 0.4 156.24 0.4L156.24 0.4Q153.84 0.4 152.19-1.23 150.54-2.85 150.54-5.2L150.54-5.2Q150.54-6.7 151.36-7.78 152.19-8.85 152.99-9.15L152.99-9.15Q154.39-9.65 156.11-10.23 157.84-10.8 159.34-11.35 160.84-11.9 161.54-12.2L161.54-12.2Q161.94-12.35 162.04-12.58 162.14-12.8 162.14-13.45L162.14-13.45 162.14-14.75Q162.14-15.85 161.59-16.93 161.04-18 160.09-18.73 159.14-19.45 157.94-19.45L157.94-19.45Q156.69-19.45 156.09-18.65 155.49-17.85 155.24-16.4L155.24-16.4Q154.79-14.05 152.94-14.05L152.94-14.05Q152.14-14.05 151.71-14.7 151.29-15.35 151.29-16.1L151.29-16.1Q151.29-16.25 151.39-16.68 151.49-17.1 151.64-17.3L151.64-17.3Q152.39-18 153.79-18.95 155.19-19.9 156.96-20.6 158.74-21.3 160.49-21.3ZM157.89-2.25L157.89-2.25Q158.74-2.25 159.74-2.65 160.74-3.05 161.44-3.53 162.14-4 162.14-4.25L162.14-4.25 162.14-10.9Q161.19-10.6 159.74-10.15 158.29-9.7 157.59-9.45L157.59-9.45Q156.29-8.95 155.44-8 154.59-7.05 154.59-5.65L154.59-5.65Q154.59-4.3 155.54-3.28 156.49-2.25 157.89-2.25ZM177.53-27.5L177.53-21.1 183.83-21.1Q184.08-21.1 184.08-20.55L184.08-20.55Q184.08-19.8 183.38-19.1L183.38-19.1 177.53-19.1 177.53-6.3Q177.53-2.3 180.78-2.3L180.78-2.3Q181.88-2.3 182.78-2.75 183.68-3.2 183.93-3.4L183.93-3.4Q184.08-3.35 184.08-3.1L184.08-3.1Q184.08-2.55 183.88-2.35L183.88-2.35Q183.53-1.95 182.81-1.3 182.08-0.65 181.08-0.15 180.08 0.35 178.88 0.35L178.88 0.35Q177.63 0.35 176.46-0.1 175.28-0.55 174.53-1.7 173.78-2.85 173.78-4.95L173.78-4.95 173.78-19.1 170.93-19.1Q170.83-19.1 170.78-19.28 170.73-19.45 170.73-19.55L170.73-19.55Q170.73-19.65 171.03-20.03 171.33-20.4 171.66-20.75 171.98-21.1 171.98-21.1L171.98-21.1 173.78-21.1 173.78-24.15Q174.28-24.7 174.96-25.43 175.63-26.15 176.18-26.78 176.73-27.4 176.78-27.45L176.78-27.45Q176.98-27.65 177.26-27.65 177.53-27.65 177.53-27.5L177.53-27.5ZM196.63-21.3L196.63-21.3Q198.03-21.3 199.26-20.4 200.48-19.5 201.23-18 201.98-16.5 201.98-14.6L201.98-14.6 201.98-4.55Q201.98-3.6 202.33-2.93 202.68-2.25 203.48-2.25L203.48-2.25Q204.18-2.25 204.58-2.55 204.98-2.85 205.08-2.9L205.08-2.9Q205.18-2.9 205.23-2.75 205.28-2.6 205.28-2.5L205.28-2.5Q205.28-1.95 205.03-1.55L205.03-1.55Q204.73-1.3 204.06-0.85 203.38-0.4 202.66-0.05 201.93 0.3 201.38 0.3L201.38 0.3Q200.33 0.3 199.51-0.75 198.68-1.8 198.43-2.9L198.43-2.9Q198.23-2.7 197.51-2.15 196.78-1.6 195.83-1.03 194.88-0.45 193.96-0.03 193.03 0.4 192.38 0.4L192.38 0.4Q189.98 0.4 188.33-1.23 186.68-2.85 186.68-5.2L186.68-5.2Q186.68-6.7 187.51-7.78 188.33-8.85 189.13-9.15L189.13-9.15Q190.53-9.65 192.26-10.23 193.98-10.8 195.48-11.35 196.98-11.9 197.68-12.2L197.68-12.2Q198.08-12.35 198.18-12.58 198.28-12.8 198.28-13.45L198.28-13.45 198.28-14.75Q198.28-15.85 197.73-16.93 197.18-18 196.23-18.73 195.28-19.45 194.08-19.45L194.08-19.45Q192.83-19.45 192.23-18.65 191.63-17.85 191.38-16.4L191.38-16.4Q190.93-14.05 189.08-14.05L189.08-14.05Q188.28-14.05 187.86-14.7 187.43-15.35 187.43-16.1L187.43-16.1Q187.43-16.25 187.53-16.68 187.63-17.1 187.78-17.3L187.78-17.3Q188.53-18 189.93-18.95 191.33-19.9 193.11-20.6 194.88-21.3 196.63-21.3ZM194.03-2.25L194.03-2.25Q194.88-2.25 195.88-2.65 196.88-3.05 197.58-3.53 198.28-4 198.28-4.25L198.28-4.25 198.28-10.9Q197.33-10.6 195.88-10.15 194.43-9.7 193.73-9.45L193.73-9.45Q192.43-8.95 191.58-8 190.73-7.05 190.73-5.65L190.73-5.65Q190.73-4.3 191.68-3.28 192.63-2.25 194.03-2.25ZM209.63-5.05L211.88-10.4Q212.23-11.35 213.28-10.6L213.28-10.6 217.68-7.55Q218.43-7.05 217.83-5.55L217.83-5.55 215.88-0.9Q215.33 0.4 213.98-0.65L213.98-0.65 210.23-3.5Q209.28-4.25 209.63-5.05L209.63-5.05ZM227.73-20.75L227.73-20.75Q229.23-20.75 230.55-20.85 231.88-20.95 232.68-21L232.68-21Q232.73-20.85 232.75-20.35 232.78-19.85 232.58-19.6L232.58-19.6Q231.98-19.6 231.3-19.45 230.63-19.3 230.63-18.75L230.63-18.75Q230.63-18.55 230.88-18.15L230.88-18.15 234.08-13.05Q234.73-14.1 235.53-15.2 236.33-16.3 236.93-17.23 237.53-18.15 237.53-18.65L237.53-18.65Q237.53-19.05 237.08-19.25 236.63-19.45 236.05-19.5 235.48-19.55 235.13-19.6L235.13-19.6Q234.88-19.6 234.83-19.6L234.83-19.6Q234.78-19.65 234.75-20.25 234.73-20.85 234.83-21L234.83-21Q236.33-20.95 237.28-20.85 238.23-20.75 239.73-20.75L239.73-20.75Q241.03-20.75 242.1-20.85 243.18-20.95 243.68-21L243.68-21Q243.73-20.8 243.73-20.2 243.73-19.6 243.63-19.6L243.63-19.6Q243.18-19.6 242.4-19.5 241.63-19.4 240.9-19.18 240.18-18.95 239.83-18.5L239.83-18.5Q238.98-17.3 237.93-15.8 236.88-14.3 236.05-13.15 235.23-12 234.98-11.7L234.98-11.7Q235.13-11.5 235.75-10.55 236.38-9.6 237.23-8.35 238.08-7.1 238.9-5.88 239.73-4.65 240.28-3.85 240.83-3.05 240.83-3.05L240.83-3.05Q241.58-2 242.55-1.63 243.53-1.25 244.58-1.25L244.58-1.25Q244.68-1.25 244.65-0.63 244.63 0 244.53 0.15L244.53 0.15Q243.18 0.05 242.23-0.03 241.28-0.1 239.93-0.1L239.93-0.1Q238.38-0.1 237.25-0.03 236.13 0.05 234.53 0.15L234.53 0.15Q234.43-0.1 234.45-0.68 234.48-1.25 234.58-1.25L234.58-1.25Q235.13-1.3 235.88-1.5 236.63-1.7 236.63-2.15L236.63-2.15Q236.63-2.25 236.53-2.45L236.53-2.45Q236.53-2.45 236.13-3.1 235.73-3.75 235.1-4.75 234.48-5.75 233.83-6.78 233.18-7.8 232.68-8.55L232.68-8.55Q231.98-7.5 231.05-6.18 230.13-4.85 229.13-3.25L229.13-3.25Q228.93-2.95 228.9-2.75 228.88-2.55 228.88-2.35L228.88-2.35Q228.88-1.65 229.8-1.5 230.73-1.35 231.53-1.25L231.53-1.25Q231.63-1.25 231.63-0.65 231.63-0.05 231.48 0.15L231.48 0.15Q230.08 0.05 229.2-0.03 228.33-0.1 226.88-0.1L226.88-0.1Q225.48-0.1 224.58-0.03 223.68 0.05 222.28 0.15L222.28 0.15Q222.23-0.15 222.25-0.6 222.28-1.05 222.38-1.25L222.38-1.25Q223.53-1.45 224.88-1.75 226.23-2.05 227.03-3.15L227.03-3.15Q227.03-3.15 227.48-3.83 227.93-4.5 228.63-5.48 229.33-6.45 230-7.48 230.68-8.5 231.2-9.22 231.73-9.95 231.78-10.05L231.78-10.05Q231.68-10.25 231.05-11.15 230.43-12.05 229.6-13.28 228.78-14.5 227.98-15.7 227.18-16.9 226.65-17.7 226.13-18.5 226.13-18.5L226.13-18.5Q225.73-19.1 224.65-19.35 223.58-19.6 222.83-19.6L222.83-19.6Q222.78-19.6 222.78-20.2 222.78-20.8 222.88-21L222.88-21Q224.08-20.9 225.2-20.83 226.33-20.75 227.73-20.75ZM249.87-20.75L249.87-20.75Q251.27-20.75 252.7-20.85 254.12-20.95 254.77-21L254.77-21Q254.87-20.8 254.82-20.2 254.77-19.6 254.57-19.6L254.57-19.6Q254.42-19.6 253.82-19.55 253.22-19.5 252.7-19.33 252.17-19.15 252.17-18.75L252.17-18.75Q252.17-18.65 252.22-18.55L252.22-18.55 257.42-5.35Q257.42-5.35 257.82-6.43 258.22-7.5 258.87-9.18 259.52-10.85 260.27-12.8 261.02-14.75 261.72-16.45L261.72-16.45Q261.92-16.9 261.97-17.32 262.02-17.75 262.02-18L262.02-18Q262.02-18.75 261.25-19.18 260.47-19.6 259.22-19.6L259.22-19.6Q259.02-19.6 259.02-20.2 259.02-20.8 259.22-21L259.22-21Q259.77-20.95 260.95-20.85 262.12-20.75 263.62-20.75L263.62-20.75Q265.02-20.75 266-20.85 266.97-20.95 267.72-21L267.72-21Q267.87-20.8 267.8-20.2 267.72-19.6 267.57-19.6L267.57-19.6Q267.37-19.6 266.75-19.45 266.12-19.3 265.45-18.95 264.77-18.6 264.47-17.9L264.47-17.9Q263.37-15.3 262.5-13.2 261.62-11.1 260.8-9.13 259.97-7.15 259.1-5.03 258.22-2.9 257.17-0.3L257.17-0.3Q256.27 1.95 255.42 4.2 254.57 6.45 253.27 8.4L253.27 8.4Q252.47 9.65 251.35 10.4 250.22 11.15 249.02 11.15L249.02 11.15Q248.32 11.15 247.62 10.75 246.92 10.35 246.92 9.05L246.92 9.05Q246.92 8.6 247.1 8.2 247.27 7.8 247.47 7.6L247.47 7.6Q248.62 7.6 249.5 7.48 250.37 7.35 251.2 6.75 252.02 6.15 253.02 4.85L253.02 4.85Q253.42 4.3 253.92 3.23 254.42 2.15 254.85 1.15 255.27 0.15 255.32-0.1L255.32-0.1Q253.97-3.6 252.77-6.63 251.57-9.65 250.35-12.58 249.12-15.5 247.67-18.6L247.67-18.6Q247.32-19.35 246.42-19.48 245.52-19.6 245.07-19.6L245.07-19.6Q244.97-19.6 244.97-19.6L244.97-19.6Q244.92-19.6 244.92-20.28 244.92-20.95 244.97-21L244.97-21Q245.67-20.95 247.02-20.85 248.37-20.75 249.87-20.75ZM275.07-21.05L275.07-21.05 281.32-21.05Q283.32-21.05 284.55-21.15 285.77-21.25 287.27-21.45L287.27-21.45Q287.42-21.2 287.42-20.93 287.42-20.65 287.42-20.4L287.42-20.4Q287.42-20.3 287.42-20.25L287.42-20.25Q287.42-20.25 286.72-19.25 286.02-18.25 284.87-16.6 283.72-14.95 282.34-13 280.97-11.05 279.57-9.08 278.17-7.1 277.02-5.43 275.87-3.75 275.17-2.75 274.47-1.75 274.47-1.7L274.47-1.7 281.32-1.7Q283.57-1.7 284.89-3.13 286.22-4.55 286.67-6.1L286.67-6.1Q286.72-6.4 287.02-6.4L287.02-6.4Q287.77-6.4 288.27-5.8L288.27-5.8Q288.27-5.8 287.87-4.83 287.47-3.85 286.97-2.5 286.47-1.15 286.07 0L286.07 0 270.22 0Q269.97-0.1 269.72-0.4 269.47-0.7 269.47-1L269.47-1Q269.47-1.05 269.47-1.15 269.47-1.25 269.52-1.3L269.52-1.3 282.07-19.35 275.22-19.4Q273.82-19.4 273.09-18.73 272.37-18.05 272.05-17.23 271.72-16.4 271.52-15.95L271.52-15.95Q271.32-15.55 270.47-15.55L270.47-15.55Q269.92-15.55 269.92-15.65L269.92-15.65Q270.07-16.2 270.34-17.85 270.62-19.5 270.72-21.45L270.72-21.45Q270.72-21.45 271.44-21.35 272.17-21.25 273.19-21.15 274.22-21.05 275.07-21.05Z" opacity="1" transform="matrix(1,0,0,1,0,0)" fill="#ffffff" class="wordmark-text-0" data-fill-palette-color="quaternary" id="text-0"></path></svg></g></svg></g></svg></g></svg></g><g></g></svg></g><defs></defs></svg><rect width="395.52" height="95.56309665220476" fill="none" stroke="none" visibility="hidden"></rect></g></svg></g></svg>